<svg width="202" height="60" viewBox="0 0 202 60" fill="none" xmlns="http://www.w3.org/2000/svg">
<path d="M0 12.1111C0 9.28833 2.45178 7 5.47619 7H40.5238C43.5482 7 46 9.28833 46 12.1111V46.8667C46 49.6894 43.5482 51.9778 40.5238 51.9778H5.47619C2.45178 51.9778 0 49.6894 0 46.8667V12.1111Z" fill="black"/>
<path d="M32.3095 29.4889C32.3095 37.9573 27.8201 44.8222 23 44.8222C18.1798 44.8222 13.6904 37.9573 13.6904 29.4889C13.6904 21.0205 18.1798 14.1556 23 14.1556C27.8201 14.1556 32.3095 21.0205 32.3095 29.4889ZM15.8894 29.4889C15.8894 36.3882 19.073 41.9811 23 41.9811C26.9269 41.9811 30.1105 36.3882 30.1105 29.4889C30.1105 22.5896 26.9269 16.9967 23 16.9967C19.073 16.9967 15.8894 22.5896 15.8894 29.4889Z" fill="#F1F1F1"/>
<path d="M24.0953 11.0889H21.9048V47.8889H24.0953V11.0889Z" fill="#F1F1F1"/>
<path d="M22.9637 13.2322L20.2039 8.55421L25.8322 8.61146L22.9637 13.2322Z" fill="#F1F1F1"/>
<path d="M37.3176 29.4324L42.3853 26.953L42.2085 32.2038L37.3176 29.4324Z" fill="#F1F1F1"/>
<path d="M8.93281 29.5899L3.91626 32.1582L3.98666 26.9052L8.93281 29.5899Z" fill="#F1F1F1"/>
<path d="M23.0175 45.8689L25.7916 50.5395L20.1631 50.4972L23.0175 45.8689Z" fill="#F1F1F1"/>
<path d="M39.4287 28.4667H6.57153V30.5111H39.4287V28.4667Z" fill="#F1F1F1"/>
<mask id="path-9-inside-1_671_192" fill="white">
<path d="M65.9505 44L61.8305 39.88V20.12L65.9505 16H78.3705L82.5105 20.12V26.56H76.8505V22.88L75.6305 21.66H68.7105L67.4905 22.88V37.12L68.7105 38.34H75.6305L76.8505 37.12V33.44H82.5105V39.88L78.3705 44H65.9505ZM67.0505 41.78H77.2705L80.3105 38.74V35.4H79.0705V38.22L76.7105 40.54H67.6105L65.2505 38.22V21.72L67.6105 19.38H76.7105L79.0705 21.72V24.54H80.3105V21.18L77.2705 18.16H67.0505L64.0105 21.18V38.74L67.0505 41.78ZM95.0333 44L90.9133 39.88V20.12L95.0333 16H108.313L112.433 20.12V39.88L108.313 44H95.0333ZM97.7933 38.34H105.553L106.773 37.12V22.88L105.553 21.66H97.7933L96.5733 22.88V37.12L97.7933 38.34ZM96.1933 41.72H107.173L110.213 38.68V21.18L107.173 18.16H96.1933L93.1733 21.18V38.68L96.1933 41.72ZM96.7533 40.48L94.3933 38.16V21.72L96.7533 19.38H106.613L108.973 21.72V38.16L106.613 40.48H96.7533ZM121.246 44V16H137.906L142.026 20.12V39.88L137.906 44H121.246ZM126.906 38.34H135.166L136.386 37.12V22.88L135.166 21.66H126.906V38.34ZM123.486 41.8H136.746L139.766 38.76V21.28L136.746 18.24H123.486V41.8ZM124.726 40.56V19.48H136.186L138.546 21.8V38.24L136.186 40.56H124.726ZM150.827 44V20.12L154.947 16H167.867L171.987 20.12V44H166.347V35.76H156.467V44H150.827ZM153.107 41.62H154.347V33.6H168.547V41.62H169.787V21.1L166.747 18.08H156.147L153.107 21.1V41.62ZM156.467 30.12H166.347V22.88L165.127 21.66H157.687L156.467 22.88V30.12ZM154.347 32.38V21.62L156.707 19.3H166.187L168.547 21.62V32.38H154.347Z"/>
</mask>
<path d="M65.9505 44L61.8305 39.88V20.12L65.9505 16H78.3705L82.5105 20.12V26.56H76.8505V22.88L75.6305 21.66H68.7105L67.4905 22.88V37.12L68.7105 38.34H75.6305L76.8505 37.12V33.44H82.5105V39.88L78.3705 44H65.9505ZM67.0505 41.78H77.2705L80.3105 38.74V35.4H79.0705V38.22L76.7105 40.54H67.6105L65.2505 38.22V21.72L67.6105 19.38H76.7105L79.0705 21.72V24.54H80.3105V21.18L77.2705 18.16H67.0505L64.0105 21.18V38.74L67.0505 41.78ZM95.0333 44L90.9133 39.88V20.12L95.0333 16H108.313L112.433 20.12V39.88L108.313 44H95.0333ZM97.7933 38.34H105.553L106.773 37.12V22.88L105.553 21.66H97.7933L96.5733 22.88V37.12L97.7933 38.34ZM96.1933 41.72H107.173L110.213 38.68V21.18L107.173 18.16H96.1933L93.1733 21.18V38.68L96.1933 41.72ZM96.7533 40.48L94.3933 38.16V21.72L96.7533 19.38H106.613L108.973 21.72V38.16L106.613 40.48H96.7533ZM121.246 44V16H137.906L142.026 20.12V39.88L137.906 44H121.246ZM126.906 38.34H135.166L136.386 37.12V22.88L135.166 21.66H126.906V38.34ZM123.486 41.8H136.746L139.766 38.76V21.28L136.746 18.24H123.486V41.8ZM124.726 40.56V19.48H136.186L138.546 21.8V38.24L136.186 40.56H124.726ZM150.827 44V20.12L154.947 16H167.867L171.987 20.12V44H166.347V35.76H156.467V44H150.827ZM153.107 41.62H154.347V33.6H168.547V41.62H169.787V21.1L166.747 18.08H156.147L153.107 21.1V41.62ZM156.467 30.12H166.347V22.88L165.127 21.66H157.687L156.467 22.88V30.12ZM154.347 32.38V21.62L156.707 19.3H166.187L168.547 21.62V32.38H154.347Z" fill="#9DDC8D"/>
<path d="M65.9505 44L65.2434 44.7071L65.5363 45H65.9505V44ZM61.8305 39.88H60.8305V40.2942L61.1234 40.5871L61.8305 39.88ZM61.8305 20.12L61.1234 19.4129L60.8305 19.7058V20.12H61.8305ZM65.9505 16V15H65.5363L65.2434 15.2929L65.9505 16ZM78.3705 16L79.0759 15.2912L78.7833 15H78.3705V16ZM82.5105 20.12H83.5105V19.7044L83.2159 19.4112L82.5105 20.12ZM82.5105 26.56V27.56H83.5105V26.56H82.5105ZM76.8505 26.56H75.8505V27.56H76.8505V26.56ZM76.8505 22.88H77.8505V22.4658L77.5576 22.1729L76.8505 22.88ZM75.6305 21.66L76.3376 20.9529L76.0447 20.66H75.6305V21.66ZM68.7105 21.66V20.66H68.2963L68.0034 20.9529L68.7105 21.66ZM67.4905 22.88L66.7834 22.1729L66.4905 22.4658V22.88H67.4905ZM67.4905 37.12H66.4905V37.5342L66.7834 37.8271L67.4905 37.12ZM68.7105 38.34L68.0034 39.0471L68.2963 39.34H68.7105V38.34ZM75.6305 38.34V39.34H76.0447L76.3376 39.0471L75.6305 38.34ZM76.8505 37.12L77.5576 37.8271L77.8505 37.5342V37.12H76.8505ZM76.8505 33.44V32.44H75.8505V33.44H76.8505ZM82.5105 33.44H83.5105V32.44H82.5105V33.44ZM82.5105 39.88L83.2159 40.5888L83.5105 40.2956V39.88H82.5105ZM78.3705 44V45H78.7833L79.0759 44.7088L78.3705 44ZM67.0505 41.78L66.3434 42.4871L66.6363 42.78H67.0505V41.78ZM77.2705 41.78V42.78H77.6847L77.9776 42.4871L77.2705 41.78ZM80.3105 38.74L81.0176 39.4471L81.3105 39.1542V38.74H80.3105ZM80.3105 35.4H81.3105V34.4H80.3105V35.4ZM79.0705 35.4V34.4H78.0705V35.4H79.0705ZM79.0705 38.22L79.7715 38.9331L80.0705 38.6392V38.22H79.0705ZM76.7105 40.54V41.54H77.1197L77.4115 41.2531L76.7105 40.54ZM67.6105 40.54L66.9094 41.2531L67.2013 41.54H67.6105V40.54ZM65.2505 38.22H64.2505V38.6392L64.5494 38.9331L65.2505 38.22ZM65.2505 21.72L64.5464 21.0099L64.2505 21.3033V21.72H65.2505ZM67.6105 19.38V18.38H67.1987L66.9064 18.6699L67.6105 19.38ZM76.7105 19.38L77.4146 18.6699L77.1222 18.38H76.7105V19.38ZM79.0705 21.72H80.0705V21.3033L79.7746 21.0099L79.0705 21.72ZM79.0705 24.54H78.0705V25.54H79.0705V24.54ZM80.3105 24.54V25.54H81.3105V24.54H80.3105ZM80.3105 21.18H81.3105V20.7639L81.0152 20.4706L80.3105 21.18ZM77.2705 18.16L77.9752 17.4506L77.6828 17.16H77.2705V18.16ZM67.0505 18.16V17.16H66.6382L66.3457 17.4506L67.0505 18.16ZM64.0105 21.18L63.3057 20.4706L63.0105 20.7639V21.18H64.0105ZM64.0105 38.74H63.0105V39.1542L63.3034 39.4471L64.0105 38.74ZM65.9505 44L66.6576 43.2929L62.5376 39.1729L61.8305 39.88L61.1234 40.5871L65.2434 44.7071L65.9505 44ZM61.8305 39.88H62.8305V20.12H61.8305H60.8305V39.88H61.8305ZM61.8305 20.12L62.5376 20.8271L66.6576 16.7071L65.9505 16L65.2434 15.2929L61.1234 19.4129L61.8305 20.12ZM65.9505 16V17H78.3705V16V15H65.9505V16ZM78.3705 16L77.6651 16.7088L81.8051 20.8288L82.5105 20.12L83.2159 19.4112L79.0759 15.2912L78.3705 16ZM82.5105 20.12H81.5105V26.56H82.5105H83.5105V20.12H82.5105ZM82.5105 26.56V25.56H76.8505V26.56V27.56H82.5105V26.56ZM76.8505 26.56H77.8505V22.88H76.8505H75.8505V26.56H76.8505ZM76.8505 22.88L77.5576 22.1729L76.3376 20.9529L75.6305 21.66L74.9234 22.3671L76.1434 23.5871L76.8505 22.88ZM75.6305 21.66V20.66H68.7105V21.66V22.66H75.6305V21.66ZM68.7105 21.66L68.0034 20.9529L66.7834 22.1729L67.4905 22.88L68.1976 23.5871L69.4176 22.3671L68.7105 21.66ZM67.4905 22.88H66.4905V37.12H67.4905H68.4905V22.88H67.4905ZM67.4905 37.12L66.7834 37.8271L68.0034 39.0471L68.7105 38.34L69.4176 37.6329L68.1976 36.4129L67.4905 37.12ZM68.7105 38.34V39.34H75.6305V38.34V37.34H68.7105V38.34ZM75.6305 38.34L76.3376 39.0471L77.5576 37.8271L76.8505 37.12L76.1434 36.4129L74.9234 37.6329L75.6305 38.34ZM76.8505 37.12H77.8505V33.44H76.8505H75.8505V37.12H76.8505ZM76.8505 33.44V34.44H82.5105V33.44V32.44H76.8505V33.44ZM82.5105 33.44H81.5105V39.88H82.5105H83.5105V33.44H82.5105ZM82.5105 39.88L81.8051 39.1712L77.6651 43.2912L78.3705 44L79.0759 44.7088L83.2159 40.5888L82.5105 39.88ZM78.3705 44V43H65.9505V44V45H78.3705V44ZM67.0505 41.78V42.78H77.2705V41.78V40.78H67.0505V41.78ZM77.2705 41.78L77.9776 42.4871L81.0176 39.4471L80.3105 38.74L79.6034 38.0329L76.5634 41.0729L77.2705 41.78ZM80.3105 38.74H81.3105V35.4H80.3105H79.3105V38.74H80.3105ZM80.3105 35.4V34.4H79.0705V35.4V36.4H80.3105V35.4ZM79.0705 35.4H78.0705V38.22H79.0705H80.0705V35.4H79.0705ZM79.0705 38.22L78.3694 37.5069L76.0094 39.8269L76.7105 40.54L77.4115 41.2531L79.7715 38.9331L79.0705 38.22ZM76.7105 40.54V39.54H67.6105V40.54V41.54H76.7105V40.54ZM67.6105 40.54L68.3115 39.8269L65.9515 37.5069L65.2505 38.22L64.5494 38.9331L66.9094 41.2531L67.6105 40.54ZM65.2505 38.22H66.2505V21.72H65.2505H64.2505V38.22H65.2505ZM65.2505 21.72L65.9546 22.4301L68.3146 20.0901L67.6105 19.38L66.9064 18.6699L64.5464 21.0099L65.2505 21.72ZM67.6105 19.38V20.38H76.7105V19.38V18.38H67.6105V19.38ZM76.7105 19.38L76.0064 20.0901L78.3664 22.4301L79.0705 21.72L79.7746 21.0099L77.4146 18.6699L76.7105 19.38ZM79.0705 21.72H78.0705V24.54H79.0705H80.0705V21.72H79.0705ZM79.0705 24.54V25.54H80.3105V24.54V23.54H79.0705V24.54ZM80.3105 24.54H81.3105V21.18H80.3105H79.3105V24.54H80.3105ZM80.3105 21.18L81.0152 20.4706L77.9752 17.4506L77.2705 18.16L76.5657 18.8694L79.6057 21.8894L80.3105 21.18ZM77.2705 18.16V17.16H67.0505V18.16V19.16H77.2705V18.16ZM67.0505 18.16L66.3457 17.4506L63.3057 20.4706L64.0105 21.18L64.7152 21.8894L67.7552 18.8694L67.0505 18.16ZM64.0105 21.18H63.0105V38.74H64.0105H65.0105V21.18H64.0105ZM64.0105 38.74L63.3034 39.4471L66.3434 42.4871L67.0505 41.78L67.7576 41.0729L64.7176 38.0329L64.0105 38.74ZM95.0333 44L94.3262 44.7071L94.6191 45H95.0333V44ZM90.9133 39.88H89.9133V40.2942L90.2062 40.5871L90.9133 39.88ZM90.9133 20.12L90.2062 19.4129L89.9133 19.7058V20.12H90.9133ZM95.0333 16V15H94.6191L94.3262 15.2929L95.0333 16ZM108.313 16L109.02 15.2929L108.727 15H108.313V16ZM112.433 20.12H113.433V19.7058L113.14 19.4129L112.433 20.12ZM112.433 39.88L113.14 40.5871L113.433 40.2942V39.88H112.433ZM108.313 44V45H108.727L109.02 44.7071L108.313 44ZM97.7933 38.34L97.0862 39.0471L97.3791 39.34H97.7933V38.34ZM105.553 38.34V39.34H105.967L106.26 39.0471L105.553 38.34ZM106.773 37.12L107.48 37.8271L107.773 37.5342V37.12H106.773ZM106.773 22.88H107.773V22.4658L107.48 22.1729L106.773 22.88ZM105.553 21.66L106.26 20.9529L105.967 20.66H105.553V21.66ZM97.7933 21.66V20.66H97.3791L97.0862 20.9529L97.7933 21.66ZM96.5733 22.88L95.8662 22.1729L95.5733 22.4658V22.88H96.5733ZM96.5733 37.12H95.5733V37.5342L95.8662 37.8271L96.5733 37.12ZM96.1933 41.72L95.4838 42.4248L95.7771 42.72H96.1933V41.72ZM107.173 41.72V42.72H107.587L107.88 42.4271L107.173 41.72ZM110.213 38.68L110.92 39.3871L111.213 39.0942V38.68H110.213ZM110.213 21.18H111.213V20.7639L110.918 20.4706L110.213 21.18ZM107.173 18.16L107.878 17.4506L107.586 17.16H107.173V18.16ZM96.1933 18.16V17.16H95.7791L95.4862 17.4529L96.1933 18.16ZM93.1733 21.18L92.4662 20.4729L92.1733 20.7658V21.18H93.1733ZM93.1733 38.68H92.1733V39.0923L92.4638 39.3848L93.1733 38.68ZM96.7533 40.48L96.0522 41.1931L96.3441 41.48H96.7533V40.48ZM94.3933 38.16H93.3933V38.5792L93.6922 38.8731L94.3933 38.16ZM94.3933 21.72L93.6892 21.0099L93.3933 21.3033V21.72H94.3933ZM96.7533 19.38V18.38H96.3416L96.0492 18.6699L96.7533 19.38ZM106.613 19.38L107.317 18.6699L107.025 18.38H106.613V19.38ZM108.973 21.72H109.973V21.3033L109.677 21.0099L108.973 21.72ZM108.973 38.16L109.674 38.8731L109.973 38.5792V38.16H108.973ZM106.613 40.48V41.48H107.022L107.314 41.1931L106.613 40.48ZM95.0333 44L95.7404 43.2929L91.6204 39.1729L90.9133 39.88L90.2062 40.5871L94.3262 44.7071L95.0333 44ZM90.9133 39.88H91.9133V20.12H90.9133H89.9133V39.88H90.9133ZM90.9133 20.12L91.6204 20.8271L95.7404 16.7071L95.0333 16L94.3262 15.2929L90.2062 19.4129L90.9133 20.12ZM95.0333 16V17H108.313V16V15H95.0333V16ZM108.313 16L107.606 16.7071L111.726 20.8271L112.433 20.12L113.14 19.4129L109.02 15.2929L108.313 16ZM112.433 20.12H111.433V39.88H112.433H113.433V20.12H112.433ZM112.433 39.88L111.726 39.1729L107.606 43.2929L108.313 44L109.02 44.7071L113.14 40.5871L112.433 39.88ZM108.313 44V43H95.0333V44V45H108.313V44ZM97.7933 38.34V39.34H105.553V38.34V37.34H97.7933V38.34ZM105.553 38.34L106.26 39.0471L107.48 37.8271L106.773 37.12L106.066 36.4129L104.846 37.6329L105.553 38.34ZM106.773 37.12H107.773V22.88H106.773H105.773V37.12H106.773ZM106.773 22.88L107.48 22.1729L106.26 20.9529L105.553 21.66L104.846 22.3671L106.066 23.5871L106.773 22.88ZM105.553 21.66V20.66H97.7933V21.66V22.66H105.553V21.66ZM97.7933 21.66L97.0862 20.9529L95.8662 22.1729L96.5733 22.88L97.2804 23.5871L98.5004 22.3671L97.7933 21.66ZM96.5733 22.88H95.5733V37.12H96.5733H97.5733V22.88H96.5733ZM96.5733 37.12L95.8662 37.8271L97.0862 39.0471L97.7933 38.34L98.5004 37.6329L97.2804 36.4129L96.5733 37.12ZM96.1933 41.72V42.72H107.173V41.72V40.72H96.1933V41.72ZM107.173 41.72L107.88 42.4271L110.92 39.3871L110.213 38.68L109.506 37.9729L106.466 41.0129L107.173 41.72ZM110.213 38.68H111.213V21.18H110.213H109.213V38.68H110.213ZM110.213 21.18L110.918 20.4706L107.878 17.4506L107.173 18.16L106.469 18.8694L109.509 21.8894L110.213 21.18ZM107.173 18.16V17.16H96.1933V18.16V19.16H107.173V18.16ZM96.1933 18.16L95.4862 17.4529L92.4662 20.4729L93.1733 21.18L93.8804 21.8871L96.9004 18.8671L96.1933 18.16ZM93.1733 21.18H92.1733V38.68H93.1733H94.1733V21.18H93.1733ZM93.1733 38.68L92.4638 39.3848L95.4838 42.4248L96.1933 41.72L96.9027 41.0152L93.8827 37.9752L93.1733 38.68ZM96.7533 40.48L97.4543 39.7669L95.0943 37.4469L94.3933 38.16L93.6922 38.8731L96.0522 41.1931L96.7533 40.48ZM94.3933 38.16H95.3933V21.72H94.3933H93.3933V38.16H94.3933ZM94.3933 21.72L95.0974 22.4301L97.4574 20.0901L96.7533 19.38L96.0492 18.6699L93.6892 21.0099L94.3933 21.72ZM96.7533 19.38V20.38H106.613V19.38V18.38H96.7533V19.38ZM106.613 19.38L105.909 20.0901L108.269 22.4301L108.973 21.72L109.677 21.0099L107.317 18.6699L106.613 19.38ZM108.973 21.72H107.973V38.16H108.973H109.973V21.72H108.973ZM108.973 38.16L108.272 37.4469L105.912 39.7669L106.613 40.48L107.314 41.1931L109.674 38.8731L108.973 38.16ZM106.613 40.48V39.48H96.7533V40.48V41.48H106.613V40.48ZM121.246 44H120.246V45H121.246V44ZM121.246 16V15H120.246V16H121.246ZM137.906 16L138.613 15.2929L138.32 15H137.906V16ZM142.026 20.12H143.026V19.7058L142.733 19.4129L142.026 20.12ZM142.026 39.88L142.733 40.5871L143.026 40.2942V39.88H142.026ZM137.906 44V45H138.32L138.613 44.7071L137.906 44ZM126.906 38.34H125.906V39.34H126.906V38.34ZM135.166 38.34V39.34H135.58L135.873 39.0471L135.166 38.34ZM136.386 37.12L137.093 37.8271L137.386 37.5342V37.12H136.386ZM136.386 22.88H137.386V22.4658L137.093 22.1729L136.386 22.88ZM135.166 21.66L135.873 20.9529L135.58 20.66H135.166V21.66ZM126.906 21.66V20.66H125.906V21.66H126.906ZM123.486 41.8H122.486V42.8H123.486V41.8ZM136.746 41.8V42.8H137.162L137.456 42.5048L136.746 41.8ZM139.766 38.76L140.476 39.4648L140.766 39.1723V38.76H139.766ZM139.766 21.28H140.766V20.8677L140.476 20.5752L139.766 21.28ZM136.746 18.24L137.456 17.5352L137.162 17.24H136.746V18.24ZM123.486 18.24V17.24H122.486V18.24H123.486ZM124.726 40.56H123.726V41.56H124.726V40.56ZM124.726 19.48V18.48H123.726V19.48H124.726ZM136.186 19.48L136.887 18.7669L136.595 18.48H136.186V19.48ZM138.546 21.8H139.546V21.3808L139.247 21.0869L138.546 21.8ZM138.546 38.24L139.247 38.9531L139.546 38.6592V38.24H138.546ZM136.186 40.56V41.56H136.595L136.887 41.2731L136.186 40.56ZM121.246 44H122.246V16H121.246H120.246V44H121.246ZM121.246 16V17H137.906V16V15H121.246V16ZM137.906 16L137.199 16.7071L141.319 20.8271L142.026 20.12L142.733 19.4129L138.613 15.2929L137.906 16ZM142.026 20.12H141.026V39.88H142.026H143.026V20.12H142.026ZM142.026 39.88L141.319 39.1729L137.199 43.2929L137.906 44L138.613 44.7071L142.733 40.5871L142.026 39.88ZM137.906 44V43H121.246V44V45H137.906V44ZM126.906 38.34V39.34H135.166V38.34V37.34H126.906V38.34ZM135.166 38.34L135.873 39.0471L137.093 37.8271L136.386 37.12L135.679 36.4129L134.459 37.6329L135.166 38.34ZM136.386 37.12H137.386V22.88H136.386H135.386V37.12H136.386ZM136.386 22.88L137.093 22.1729L135.873 20.9529L135.166 21.66L134.459 22.3671L135.679 23.5871L136.386 22.88ZM135.166 21.66V20.66H126.906V21.66V22.66H135.166V21.66ZM126.906 21.66H125.906V38.34H126.906H127.906V21.66H126.906ZM123.486 41.8V42.8H136.746V41.8V40.8H123.486V41.8ZM136.746 41.8L137.456 42.5048L140.476 39.4648L139.766 38.76L139.057 38.0552L136.037 41.0952L136.746 41.8ZM139.766 38.76H140.766V21.28H139.766H138.766V38.76H139.766ZM139.766 21.28L140.476 20.5752L137.456 17.5352L136.746 18.24L136.037 18.9448L139.057 21.9848L139.766 21.28ZM136.746 18.24V17.24H123.486V18.24V19.24H136.746V18.24ZM123.486 18.24H122.486V41.8H123.486H124.486V18.24H123.486ZM124.726 40.56H125.726V19.48H124.726H123.726V40.56H124.726ZM124.726 19.48V20.48H136.186V19.48V18.48H124.726V19.48ZM136.186 19.48L135.485 20.1931L137.845 22.5131L138.546 21.8L139.247 21.0869L136.887 18.7669L136.186 19.48ZM138.546 21.8H137.546V38.24H138.546H139.546V21.8H138.546ZM138.546 38.24L137.845 37.5269L135.485 39.8469L136.186 40.56L136.887 41.2731L139.247 38.9531L138.546 38.24ZM136.186 40.56V39.56H124.726V40.56V41.56H136.186V40.56ZM150.827 44H149.827V45H150.827V44ZM150.827 20.12L150.12 19.4129L149.827 19.7058V20.12H150.827ZM154.947 16V15H154.533L154.24 15.2929L154.947 16ZM167.867 16L168.574 15.2929L168.282 15H167.867V16ZM171.987 20.12H172.987V19.7058L172.694 19.4129L171.987 20.12ZM171.987 44V45H172.987V44H171.987ZM166.347 44H165.347V45H166.347V44ZM166.347 35.76H167.347V34.76H166.347V35.76ZM156.467 35.76V34.76H155.467V35.76H156.467ZM156.467 44V45H157.467V44H156.467ZM153.107 41.62H152.107V42.62H153.107V41.62ZM154.347 41.62V42.62H155.347V41.62H154.347ZM154.347 33.6V32.6H153.347V33.6H154.347ZM168.547 33.6H169.547V32.6H168.547V33.6ZM168.547 41.62H167.547V42.62H168.547V41.62ZM169.787 41.62V42.62H170.787V41.62H169.787ZM169.787 21.1H170.787V20.6838L170.492 20.3906L169.787 21.1ZM166.747 18.08L167.452 17.3706L167.16 17.08H166.747V18.08ZM156.147 18.08V17.08H155.735L155.443 17.3706L156.147 18.08ZM153.107 21.1L152.403 20.3906L152.107 20.6838V21.1H153.107ZM156.467 30.12H155.467V31.12H156.467V30.12ZM166.347 30.12V31.12H167.347V30.12H166.347ZM166.347 22.88H167.347V22.4658L167.054 22.1729L166.347 22.88ZM165.127 21.66L165.834 20.9529L165.542 20.66H165.127V21.66ZM157.687 21.66V20.66H157.273L156.98 20.9529L157.687 21.66ZM156.467 22.88L155.76 22.1729L155.467 22.4658V22.88H156.467ZM154.347 32.38H153.347V33.38H154.347V32.38ZM154.347 21.62L153.646 20.9069L153.347 21.2008V21.62H154.347ZM156.707 19.3V18.3H156.298L156.006 18.5869L156.707 19.3ZM166.187 19.3L166.888 18.5869L166.597 18.3H166.187V19.3ZM168.547 21.62H169.547V21.2008L169.248 20.9069L168.547 21.62ZM168.547 32.38V33.38H169.547V32.38H168.547ZM150.827 44H151.827V20.12H150.827H149.827V44H150.827ZM150.827 20.12L151.534 20.8271L155.654 16.7071L154.947 16L154.24 15.2929L150.12 19.4129L150.827 20.12ZM154.947 16V17H167.867V16V15H154.947V16ZM167.867 16L167.16 16.7071L171.28 20.8271L171.987 20.12L172.694 19.4129L168.574 15.2929L167.867 16ZM171.987 20.12H170.987V44H171.987H172.987V20.12H171.987ZM171.987 44V43H166.347V44V45H171.987V44ZM166.347 44H167.347V35.76H166.347H165.347V44H166.347ZM166.347 35.76V34.76H156.467V35.76V36.76H166.347V35.76ZM156.467 35.76H155.467V44H156.467H157.467V35.76H156.467ZM156.467 44V43H150.827V44V45H156.467V44ZM153.107 41.62V42.62H154.347V41.62V40.62H153.107V41.62ZM154.347 41.62H155.347V33.6H154.347H153.347V41.62H154.347ZM154.347 33.6V34.6H168.547V33.6V32.6H154.347V33.6ZM168.547 33.6H167.547V41.62H168.547H169.547V33.6H168.547ZM168.547 41.62V42.62H169.787V41.62V40.62H168.547V41.62ZM169.787 41.62H170.787V21.1H169.787H168.787V41.62H169.787ZM169.787 21.1L170.492 20.3906L167.452 17.3706L166.747 18.08L166.043 18.7894L169.083 21.8094L169.787 21.1ZM166.747 18.08V17.08H156.147V18.08V19.08H166.747V18.08ZM156.147 18.08L155.443 17.3706L152.403 20.3906L153.107 21.1L153.812 21.8094L156.852 18.7894L156.147 18.08ZM153.107 21.1H152.107V41.62H153.107H154.107V21.1H153.107ZM156.467 30.12V31.12H166.347V30.12V29.12H156.467V30.12ZM166.347 30.12H167.347V22.88H166.347H165.347V30.12H166.347ZM166.347 22.88L167.054 22.1729L165.834 20.9529L165.127 21.66L164.42 22.3671L165.64 23.5871L166.347 22.88ZM165.127 21.66V20.66H157.687V21.66V22.66H165.127V21.66ZM157.687 21.66L156.98 20.9529L155.76 22.1729L156.467 22.88L157.174 23.5871L158.394 22.3671L157.687 21.66ZM156.467 22.88H155.467V30.12H156.467H157.467V22.88H156.467ZM154.347 32.38H155.347V21.62H154.347H153.347V32.38H154.347ZM154.347 21.62L155.048 22.3331L157.408 20.0131L156.707 19.3L156.006 18.5869L153.646 20.9069L154.347 21.62ZM156.707 19.3V20.3H166.187V19.3V18.3H156.707V19.3ZM166.187 19.3L165.486 20.0131L167.846 22.3331L168.547 21.62L169.248 20.9069L166.888 18.5869L166.187 19.3ZM168.547 21.62H167.547V32.38H168.547H169.547V21.62H168.547ZM168.547 32.38V31.38H154.347V32.38V33.38H168.547V32.38Z" fill="#9DDC8D" mask="url(#path-9-inside-1_671_192)"/>
</svg>
