<svg width="52" height="44" viewBox="0 0 52 44" fill="none" xmlns="http://www.w3.org/2000/svg">
<path d="M10.9999 42.0893C9.99159 42.0893 9.12839 41.7302 8.41034 41.0122C7.69228 40.2941 7.33325 39.4309 7.33325 38.4226C7.33325 37.4143 7.69228 36.5511 8.41034 35.833C9.12839 35.115 9.99159 34.7559 10.9999 34.7559C12.0083 34.7559 12.8714 35.115 13.5895 35.833C14.3076 36.5511 14.6666 37.4143 14.6666 38.4226C14.6666 39.4309 14.3076 40.2941 13.5895 41.0122C12.8714 41.7302 12.0083 42.0893 10.9999 42.0893Z" fill="#1F1F1F"/>
<path d="M10.9999 9.16634C9.99159 9.16634 9.12839 8.80731 8.41034 8.08926C7.69228 7.3712 7.33325 6.50801 7.33325 5.49967C7.33325 4.49134 7.69228 3.62815 8.41034 2.91009C9.12839 2.19204 9.99159 1.83301 10.9999 1.83301C12.0083 1.83301 12.8714 2.19204 13.5895 2.91009C14.3076 3.62815 14.6666 4.49134 14.6666 5.49967C14.6666 6.50801 14.3076 7.3712 13.5895 8.08926C12.8714 8.80731 12.0083 9.16634 10.9999 9.16634Z" fill="#1F1F1F"/>
<path d="M10.9999 20.1663C9.99159 20.1663 9.12839 19.8073 8.41034 19.0893C7.69228 18.3712 7.33325 17.508 7.33325 16.4997C7.33325 15.4913 7.69228 14.6281 8.41034 13.9101C9.12839 13.192 9.99159 12.833 10.9999 12.833C12.0083 12.833 12.8714 13.192 13.5895 13.9101C14.3076 14.6281 14.6666 15.4913 14.6666 16.4997C14.6666 17.508 14.3076 18.3712 13.5895 19.0893C12.8714 19.8073 12.0083 20.1663 10.9999 20.1663Z" fill="#1F1F1F"/>
<path d="M10.9999 31.1663C9.99159 31.1663 9.12839 30.8073 8.41034 30.0893C7.69228 29.3712 7.33325 28.508 7.33325 27.4997C7.33325 26.4913 7.69228 25.6281 8.41034 24.9101C9.12839 24.192 9.99159 23.833 10.9999 23.833C12.0083 23.833 12.8714 24.192 13.5895 24.9101C14.3076 25.6281 14.6666 26.4913 14.6666 27.4997C14.6666 28.508 14.3076 29.3712 13.5895 30.0893C12.8714 30.8073 12.0083 31.1663 10.9999 31.1663Z" fill="#1F1F1F"/>
<path d="M32.9999 9.16634C31.9916 9.16634 31.1284 8.80731 30.4103 8.08926C29.6923 7.3712 29.3333 6.50801 29.3333 5.49967C29.3333 4.49134 29.6923 3.62815 30.4103 2.91009C31.1284 2.19204 31.9916 1.83301 32.9999 1.83301C34.0083 1.83301 34.8714 2.19204 35.5895 2.91009C36.3076 3.62815 36.6666 4.49134 36.6666 5.49967C36.6666 6.50801 36.3076 7.3712 35.5895 8.08926C34.8714 8.80731 34.0083 9.16634 32.9999 9.16634Z" fill="#1F1F1F"/>
<path d="M21.9999 31.1663C20.9916 31.1663 20.1284 30.8073 19.4103 30.0893C18.6923 29.3712 18.3333 28.508 18.3333 27.4997C18.3333 26.4913 18.6923 25.6281 19.4103 24.9101C20.1284 24.192 20.9916 23.833 21.9999 23.833C23.0083 23.833 23.8714 24.192 24.5895 24.9101C25.3076 25.6281 25.6666 26.4913 25.6666 27.4997C25.6666 28.508 25.3076 29.3712 24.5895 30.0893C23.8714 30.8073 23.0083 31.1663 21.9999 31.1663Z" fill="#1F1F1F"/>
<path d="M43.6667 9.33333C42.6583 9.33333 41.7951 8.97431 41.0771 8.25625C40.359 7.53819 40 6.675 40 5.66667C40 4.65833 40.359 3.79514 41.0771 3.07708C41.7951 2.35903 42.6583 2 43.6667 2C44.675 2 45.5382 2.35903 46.2563 3.07708C46.9743 3.79514 47.3333 4.65833 47.3333 5.66667C47.3333 6.675 46.9743 7.53819 46.2563 8.25625C45.5382 8.97431 44.675 9.33333 43.6667 9.33333Z" fill="#1F1F1F"/>
<path d="M32.9999 20.1663C31.9916 20.1663 31.1284 19.8073 30.4103 19.0893C29.6923 18.3712 29.3333 17.508 29.3333 16.4997C29.3333 15.4913 29.6923 14.6281 30.4103 13.9101C31.1284 13.192 31.9916 12.833 32.9999 12.833C34.0083 12.833 34.8714 13.192 35.5895 13.9101C36.3076 14.6281 36.6666 15.4913 36.6666 16.4997C36.6666 17.508 36.3076 18.3712 35.5895 19.0893C34.8714 19.8073 34.0083 20.1663 32.9999 20.1663Z" fill="#1F1F1F"/>
<path d="M21.9999 20.1663C20.9916 20.1663 20.1284 19.8073 19.4103 19.0893C18.6923 18.3712 18.3333 17.508 18.3333 16.4997C18.3333 15.4913 18.6923 14.6281 19.4103 13.9101C20.1284 13.192 20.9916 12.833 21.9999 12.833C23.0083 12.833 23.8714 13.192 24.5895 13.9101C25.3076 14.6281 25.6666 15.4913 25.6666 16.4997C25.6666 17.508 25.3076 18.3712 24.5895 19.0893C23.8714 19.8073 23.0083 20.1663 21.9999 20.1663Z" fill="#1F1F1F"/>
<path d="M21.9999 9.16634C20.9916 9.16634 20.1284 8.80731 19.4103 8.08926C18.6923 7.3712 18.3333 6.50801 18.3333 5.49967C18.3333 4.49134 18.6923 3.62815 19.4103 2.91009C20.1284 2.19204 20.9916 1.83301 21.9999 1.83301C23.0083 1.83301 23.8714 2.19204 24.5895 2.91009C25.3076 3.62815 25.6666 4.49134 25.6666 5.49967C25.6666 6.50801 25.3076 7.3712 24.5895 8.08926C23.8714 8.80731 23.0083 9.16634 21.9999 9.16634Z" fill="#1F1F1F"/>
</svg>
