<svg width="581" height="958" viewBox="0 0 581 958" fill="none" xmlns="http://www.w3.org/2000/svg">
<g clip-path="url(#clip0_522_337)">
<path d="M373.038 377.088L255.712 499.534L368.125 369.361L470.182 264.599L373.038 377.088Z" fill="#FCFF9F" stroke="white"/>
<g filter="url(#filter0_f_522_337)">
<ellipse cx="323.5" cy="379" rx="93.5" ry="76" fill="#FFFBFB"/>
</g>
<path d="M369.176 392.501L265.706 258.362L377.659 388.925L465.921 505.327L369.176 392.501Z" fill="#FCFF9F" stroke="white"/>
<path d="M333.888 0C326.501 -9.76289e-08 319.116 0.39793 311.763 1.19238L333.888 252.659V0Z" fill="white"/>
<path d="M5.45947 466.64C7.05665 474.607 8.99682 482.483 11.2731 490.239L223.837 411.141L5.45947 466.64Z" fill="white"/>
<path d="M372.354 385.863L170.262 381.681L375.532 377.068L549.737 381.877L372.354 385.863Z" fill="#FCFF9F" stroke="white"/>
<path d="M55.7439 614.688C59.8569 621.431 64.258 627.947 68.9316 634.209L240.216 471.46L55.7439 614.688Z" fill="white"/>
<path d="M1.51123 336.026C0.656234 344.103 0.151894 352.226 0 360.358L223.837 365.616L1.51123 336.026Z" fill="white"/>
<path d="M323.762 756.504C331.001 757.039 338.264 757.176 345.531 756.917L343.764 504.684L323.762 756.504Z" fill="white"/>
<path d="M169.243 722.68C175.494 726.828 181.92 730.632 188.499 734.078L282.742 505.034L169.243 722.68Z" fill="white"/>
<path d="M15.2306 220.792C12.5985 228.416 10.2965 236.18 8.33276 244.056L223.837 312.41L15.2306 220.792Z" fill="white"/>
<path d="M212.855 27.599C205.953 30.1523 199.166 33.0824 192.517 36.3789L282.742 267.739L212.855 27.599Z" fill="white"/>
<path d="M93.3746 102.145C88.2347 107.935 83.3479 114.003 78.731 120.327L251.997 280.827L93.3746 102.145Z" fill="white"/>
<path d="M300.652 251.357L272.948 136.71L286.56 134.424L300.652 251.357Z" fill="#E8E8E8"/>
<path d="M368.648 248.726L374.599 131.146L388.339 132.549L368.648 248.726Z" fill="#E8E8E8"/>
<path d="M268.02 271.282L204.542 170.738L216.73 164.462L268.02 271.282Z" fill="#E8E8E8"/>
<path d="M241.302 298.912L135.003 241.07L142.462 229.852L241.302 298.912Z" fill="#E8E8E8"/>
<path d="M227.891 341.434L108.881 315.338L112.702 302.528L227.891 341.434Z" fill="#E8E8E8"/>
<path d="M227.088 440.478L118.187 493.625L112.657 481.41L227.088 440.478Z" fill="#E8E8E8"/>
<path d="M267.001 484.628L190.352 576.237L180.109 567.294L267.001 484.628Z" fill="#E8E8E8"/>
<path d="M307.671 510.878L296.23 628.08L282.569 626.083L307.671 510.878Z" fill="#E8E8E8"/>
<path d="M374.734 522.092L400.419 637.174L386.767 639.237L374.734 522.092Z" fill="#E8E8E8"/>
<path d="M220.617 381.834L99.586 396.994L98.5852 383.701L220.617 381.834Z" fill="#E8E8E8"/>
<path d="M347.175 400.004L347.123 399.612L346.735 399.52L269.28 381.647L346.655 359.772L347.014 359.673L347.066 359.303L365.886 222.906L381.98 359.411L382.023 359.792L382.397 359.894L464.271 382.292L382.538 399.637L382.132 399.725L382.087 400.135L366.194 547.153L347.175 400.004Z" fill="#FCFF9F" stroke="white" stroke-width="4"/>
<path d="M393.511 528.934C434.931 528.934 474.653 513.541 503.939 486.142C533.227 458.742 549.68 421.58 549.68 382.83C549.68 344.08 533.227 306.918 503.939 279.519C474.653 252.119 434.931 236.726 393.511 236.726V245.479C432.449 245.479 469.791 259.95 497.324 285.71C524.857 311.468 540.324 346.402 540.324 382.83C540.324 419.258 524.857 454.192 497.324 479.95C469.791 505.711 432.449 520.179 393.511 520.179V528.934Z" fill="white"/>
<path d="M365.496 240.425V305.558V344.049V381.55L349.117 361.155L365.496 240.425Z" fill="white"/>
<path d="M366.171 528.135L366.438 492.948V459.405V439.346V420.274V382.455L380.15 397.91L372.989 463.681L369.579 495.249L366.171 528.135Z" fill="#72734A"/>
<path d="M438.79 382.455H431.29H423.446H424.469H405.717H366.51L372.989 390.347L380.15 398.24L408.789 391.992L437.425 386.071L453.111 382.455H438.79Z" fill="#A1A35D"/>
<path d="M131.314 767.367C120.778 767.367 112.541 771.729 106.603 780.456C100.856 788.991 97.9826 803.124 97.9826 822.85V839.922C97.9826 859.838 100.856 874.159 106.603 882.885C112.541 891.421 122.119 895.689 135.337 895.689C144.34 895.689 151.619 893.412 157.174 888.86C162.73 884.308 166.465 876.435 168.381 865.244L183.61 869.512C180.162 882.41 173.84 891.515 164.645 896.827C155.45 902.139 145.202 904.794 133.9 904.794C113.212 904.794 97.6953 898.44 87.3511 885.73C77.1985 872.833 72.1221 855.664 72.1221 834.231V828.54C72.1221 807.295 77.1985 790.32 87.3511 777.61C97.5036 764.713 112.158 758.262 131.314 758.262C143.574 758.262 153.726 760.633 161.772 765.376C170.009 770.119 175.852 776.566 179.3 784.723C182.748 792.69 183.705 801.51 182.173 811.184L159.473 814.599C161.58 799.425 160.144 787.759 155.163 779.602C150.374 771.445 142.425 767.367 131.314 767.367Z" fill="white"/>
<path d="M341.531 771.891V766.514H398.655C415.013 766.514 427.552 771.758 436.267 782.248C444.982 792.739 449.341 807.542 449.341 826.663V841.6C449.341 860.854 444.982 875.724 436.267 886.214C427.552 896.704 415.013 901.948 398.655 901.948H341.531V896.77L352.594 895.575C354.74 895.31 356.013 894.778 356.416 893.982C356.818 893.185 357.019 890.462 357.019 885.816V782.646C357.019 778 356.818 775.277 356.416 774.481C356.013 773.684 354.74 773.152 352.594 772.887L341.531 771.891ZM398.252 772.887H374.518V895.575H398.252C405.493 895.575 411.461 894.246 416.154 891.592C420.846 888.937 424.334 884.421 426.613 878.048C429.026 871.541 430.233 862.712 430.233 851.559V816.704C430.233 805.685 429.026 796.987 426.613 790.613C424.334 784.24 420.846 779.724 416.154 777.07C411.461 774.281 405.493 772.887 398.252 772.887Z" fill="white"/>
<path d="M490.948 896.77V901.948H452.732V896.77L463.593 895.575C465.067 895.441 466.142 895.242 466.811 894.977C467.481 894.579 468.084 893.782 468.622 892.587C469.291 891.259 470.096 889.002 471.035 885.816L509.855 766.514H522.526L561.748 885.816C562.688 889.002 563.423 891.259 563.961 892.587C564.63 893.782 565.303 894.579 565.972 894.977C566.642 895.242 567.647 895.441 568.989 895.575L580.052 896.77V901.948H531.175V896.77L542.238 895.575C544.384 895.31 545.522 894.778 545.657 893.982C545.924 893.051 545.321 890.331 543.847 885.816L535.6 860.322H486.523L478.276 885.816C476.802 890.331 476.13 893.051 476.265 893.982C476.532 894.778 477.739 895.31 479.885 895.575L490.948 896.77ZM488.534 853.949H533.589L511.062 784.638L488.534 853.949Z" fill="white"/>
<path d="M325.268 821.285V837.29C325.268 858.06 320.455 874.42 310.829 886.371C301.203 898.178 287.411 904.082 269.452 904.082C251.35 904.082 237.486 898.178 227.86 886.371C218.378 874.42 213.637 858.06 213.637 837.29V821.285C213.637 800.657 218.378 784.439 227.86 772.631C237.486 760.681 251.35 754.706 269.452 754.706C287.411 754.706 301.203 760.681 310.829 772.631C320.455 784.439 325.268 800.657 325.268 821.285ZM304.795 810.615C304.795 792.833 301.778 780.242 295.744 772.845C289.853 765.305 281.09 761.535 269.452 761.535C257.815 761.535 248.979 765.305 242.945 772.845C237.055 780.242 234.11 792.833 234.11 810.615V847.96C234.11 865.742 237.055 878.404 242.945 885.944C248.979 893.484 257.815 897.254 269.452 897.254C281.09 897.254 289.853 893.484 295.744 885.944C301.778 878.404 304.795 865.742 304.795 847.96V810.615Z" fill="white"/>
<path d="M269.093 713.592L271.955 829.038H266.232L269.093 713.592Z" fill="white"/>
<path d="M268.949 945.393L266.22 828.967H269.237H271.966L268.949 945.393Z" fill="white"/>
<path d="M191.216 828.93L269.231 826.842L269.218 831.445L191.216 828.93Z" fill="white"/>
<path d="M347.112 829.36L269.093 831.406L269.111 826.72L347.112 829.36Z" fill="white"/>
<path d="M269.093 717.718V829.252L266.22 826.976L269.093 717.718Z" fill="white"/>
<path d="M268.949 941.782L269.093 829.252L271.934 831.32L268.949 941.782Z" fill="#D9D9D9"/>
<path d="M269.093 702.495L271.823 826.691L269.093 829.11V702.495Z" fill="white"/>
<path d="M269.093 702.495L271.823 826.691L269.093 829.11V702.495Z" fill="#D9D9D9"/>
<path d="M344.807 829.394L271.967 831.386L269.094 829.252L344.807 829.394Z" fill="white"/>
<path d="M191.655 828.967L268.95 829.255L266.22 831.389L191.655 828.967Z" fill="white"/>
</g>
<defs>
<filter id="filter0_f_522_337" x="-70" y="3" width="787" height="752" filterUnits="userSpaceOnUse" color-interpolation-filters="sRGB">
<feFlood flood-opacity="0" result="BackgroundImageFix"/>
<feBlend mode="normal" in="SourceGraphic" in2="BackgroundImageFix" result="shape"/>
<feGaussianBlur stdDeviation="150" result="effect1_foregroundBlur_522_337"/>
</filter>
<clipPath id="clip0_522_337">
<rect width="581" height="958" fill="white"/>
</clipPath>
</defs>
</svg>
