<svg width="889" height="472" viewBox="0 0 889 472" fill="none" xmlns="http://www.w3.org/2000/svg">
<g filter="url(#filter0_f_859_457)">
<ellipse cx="444.132" cy="453.111" rx="212.737" ry="221.716" fill="#D5D5D5"/>
</g>
<g filter="url(#filter1_ii_859_457)">
<ellipse cx="440.875" cy="455.892" rx="220.874" ry="230.197" fill="#F1F1F1"/>
</g>
<g opacity="0.85">
<g opacity="0.93">
<g filter="url(#filter2_f_859_457)">
<ellipse cx="37.718" cy="21.5782" rx="37.718" ry="21.5782" transform="matrix(0.810038 0.586378 -0.554572 0.832136 520.906 275.369)" fill="#DCDCDC"/>
</g>
<g filter="url(#filter3_di_859_457)">
<ellipse cx="37.718" cy="21.5782" rx="37.718" ry="21.5782" transform="matrix(0.810038 0.586378 -0.554572 0.832136 524.577 271.909)" fill="#F4F4F4"/>
</g>
</g>
<g opacity="0.93">
<g filter="url(#filter4_f_859_457)">
<ellipse cx="23.039" cy="13.1804" rx="23.039" ry="13.1804" transform="matrix(0.810038 0.586378 -0.554572 0.832136 534.841 350.176)" fill="#DCDCDC"/>
</g>
<g filter="url(#filter5_di_859_457)">
<ellipse cx="23.039" cy="13.1804" rx="23.039" ry="13.1804" transform="matrix(0.810038 0.586378 -0.554572 0.832136 537.084 348.063)" fill="#F4F4F4"/>
</g>
</g>
<g opacity="0.93">
<g filter="url(#filter6_f_859_457)">
<ellipse cx="14.8402" cy="8.48996" rx="14.8402" ry="8.48996" transform="matrix(0.810038 0.586378 -0.554572 0.832136 494.764 327.617)" fill="#DCDCDC"/>
</g>
<g filter="url(#filter7_di_859_457)">
<ellipse cx="14.8402" cy="8.48996" rx="14.8402" ry="8.48996" transform="matrix(0.810038 0.586378 -0.554572 0.832136 496.208 326.255)" fill="#F4F4F4"/>
</g>
</g>
</g>
<g filter="url(#filter8_df_859_457)">
<path d="M261.997 182.758L267.592 201.652L286.724 207.177L267.592 212.703L261.997 231.596L256.402 212.703L237.27 207.177L256.402 201.652L261.997 182.758Z" fill="#FFEDAD"/>
</g>
<g filter="url(#filter9_df_859_457)">
<path d="M300.038 147.695L303.051 157.869L313.353 160.844L303.051 163.819L300.038 173.993L297.026 163.819L286.724 160.844L297.026 157.869L300.038 147.695Z" fill="#FFEDAD"/>
</g>
<g filter="url(#filter10_df_859_457)">
<path d="M249.317 147.695L252.329 157.869L262.631 160.844L252.329 163.819L249.317 173.993L246.304 163.819L236.002 160.844L246.304 157.869L249.317 147.695Z" fill="#FFEDAD"/>
</g>
<path d="M746.654 438.546L744.273 437.998L742.287 435.022L738.698 419.078L700.944 402.835L693.161 392.517C690.411 390.799 688.639 391.929 688.097 392.708C684.556 400.422 677.071 400.445 673.77 399.492L653.538 394.837L649.442 406.881L636.598 395.98L616.029 390.473L606.19 392.668L598.602 395.962L596.743 412.202L597.967 414.616L598.313 413.145L729.57 443.338C742.863 447.171 746.498 441.74 746.654 438.546Z" fill="black"/>
<path d="M696.504 389.022C692.287 388.052 690.708 391.048 690.446 392.667L700.304 395.71L700.781 393.688C701.112 392.537 700.721 389.992 696.504 389.022Z" fill="black"/>
<path d="M629.644 390.503C631.588 389.555 651.611 384.509 661.38 382.104L663.326 384.49L660.632 387.553L652.36 391.465L646.816 394.453L629.644 390.503Z" fill="#92C6F7" fill-opacity="0.24"/>
<path d="M661.967 384.177L645.456 394.14L644.429 395.455L649.87 396.706L654.441 392.525L659.516 390.009L665.27 387.65C667.183 386.23 665.659 383.217 664.658 381.889L661.38 382.104L661.967 384.177Z" fill="black"/>
<path d="M580.948 404.692L582.552 397.89L586.633 398.829L587.882 404.931L587.352 409.46C577.217 407.439 576.253 404.84 577.037 403.793L580.948 404.692Z" fill="black"/>
<path d="M650.133 394.829L622.42 388.454C610.207 386.73 599.119 387.94 595.102 388.76C581.137 390.82 578.365 395.376 578.725 397.397L582.635 398.297L586.418 408.858L597.039 412.464C597.996 404.608 603.684 389.765 618.782 393.238C633.88 396.711 631.547 412.326 628.493 419.699L701.523 435.335C705.824 417.098 717.13 414.763 722.245 415.875C738.431 419.598 737.395 434.478 734.854 441.452L742.642 441.111L748.547 433.554L750.842 424.585L749.619 422.172C749.635 418.454 748.713 415.373 748.249 414.298L749.783 413.875L750 412.956L733.508 409.162C722.955 401.618 701.474 395.01 692.053 392.649C688.606 402.4 676.412 401.714 670.746 400.152L654.084 396.319C654.257 395.584 654.729 394.594 654.944 394.191C656.2 394.945 657.903 395.324 658.598 395.419C658.897 395.165 659.564 394.363 659.841 393.186C660.119 392.009 659.908 390.876 659.768 390.456C657.662 389.661 654.605 390.56 653.341 391.109L650.133 394.829Z" fill="url(#paint0_linear_859_457)"/>
<path d="M742.455 416.066L748.249 414.298C750.25 416.154 749.967 420.443 749.575 422.356L745.625 420.866L742.455 416.066Z" fill="black"/>
<ellipse cx="13.7825" cy="14.9222" rx="13.7825" ry="14.9222" transform="matrix(0.974549 0.224175 -0.229565 0.973293 709.137 416.736)" fill="black"/>
<path d="M721.556 424.118C726.798 425.324 729.946 430.889 728.616 436.527C727.286 442.166 721.972 445.784 716.731 444.578C711.489 443.373 708.341 437.808 709.671 432.169C711.001 426.531 716.315 422.913 721.556 424.118Z" fill="#171717" stroke="#555555" stroke-width="0.296323"/>
<mask id="mask0_859_457" style="mask-type:alpha" maskUnits="userSpaceOnUse" x="709" y="424" width="20" height="21">
<ellipse cx="9.57119" cy="10.3626" rx="9.57119" ry="10.3626" transform="matrix(0.974549 0.224175 -0.229565 0.973293 712.195 422.117)" fill="#828282"/>
</mask>
<g mask="url(#mask0_859_457)">
<rect width="20.2997" height="1.37364" transform="matrix(0.974549 0.224175 -0.229565 0.973293 709.351 431.3)" fill="#585858"/>
<rect width="21.9783" height="1.26873" transform="matrix(0.229565 -0.973293 0.974549 0.224175 715.943 444.797)" fill="#585858"/>
<rect width="20.7321" height="1.34818" transform="matrix(0.948064 -0.325805 0.255996 0.964298 709.083 436.972)" fill="#585858"/>
<rect width="21.5709" height="1.29576" transform="matrix(-0.255996 -0.964298 0.948064 -0.325806 721.23 444.856)" fill="#585858"/>
<rect width="21.5709" height="1.29576" transform="matrix(0.661123 -0.753333 0.704701 0.70599 711.496 441.913)" fill="#585858"/>
<rect width="20.7321" height="1.34818" transform="matrix(-0.704701 -0.70599 0.661123 -0.753333 725.942 442.071)" fill="#585858"/>
</g>
<ellipse cx="13.7825" cy="14.9222" rx="13.7825" ry="14.9222" transform="matrix(0.974549 0.224175 -0.229565 0.973293 604.403 392.644)" fill="black"/>
<path d="M616.823 400.028C622.064 401.234 625.212 406.798 623.882 412.437C622.552 418.076 617.239 421.694 611.997 420.488C606.755 419.282 603.607 413.718 604.937 408.079C606.268 402.44 611.581 398.822 616.823 400.028Z" fill="#414141" stroke="#BABABA" stroke-width="0.296323"/>
<mask id="mask1_859_457" style="mask-type:alpha" maskUnits="userSpaceOnUse" x="604" y="399" width="21" height="22">
<ellipse cx="9.57119" cy="10.3626" rx="9.57119" ry="10.3626" transform="matrix(0.974549 0.224175 -0.229565 0.973293 607.461 398.027)" fill="#828282"/>
</mask>
<g mask="url(#mask1_859_457)">
<rect width="20.2997" height="1.37364" transform="matrix(0.974549 0.224175 -0.229565 0.973293 604.617 407.209)" fill="#C4C4C4"/>
<rect width="21.9783" height="1.26873" transform="matrix(0.229565 -0.973293 0.974549 0.224175 611.209 420.706)" fill="#C4C4C4"/>
<rect width="20.7321" height="1.34818" transform="matrix(0.948064 -0.325805 0.255996 0.964298 604.349 412.88)" fill="#C4C4C4"/>
<rect width="21.5709" height="1.29576" transform="matrix(-0.255996 -0.964298 0.948064 -0.325806 616.497 420.764)" fill="#C4C4C4"/>
<rect width="21.5709" height="1.29576" transform="matrix(0.661123 -0.753333 0.704701 0.70599 606.764 417.82)" fill="#C4C4C4"/>
<rect width="20.7321" height="1.34818" transform="matrix(-0.704701 -0.70599 0.661123 -0.753333 621.211 417.979)" fill="#C4C4C4"/>
</g>
<path d="M629.798 413.41L705.298 428.451" stroke="black" stroke-width="0.148161"/>
<path d="M643.843 393.381C641.967 397.536 638.648 407.808 640.383 415.65L682.002 423.866L694.85 405.114C694.53 403.684 694.628 399.365 697.581 393.532" stroke="black" stroke-width="0.148161"/>
<path d="M743.982 417.192L731.326 421.452" stroke="black" stroke-width="0.148161"/>
<ellipse cx="5.40833" cy="5.85553" rx="5.40833" ry="5.85553" transform="matrix(0.974549 0.224175 -0.229565 0.973293 677.276 386.148)" fill="url(#paint1_linear_859_457)"/>
<mask id="mask2_859_457" style="mask-type:alpha" maskUnits="userSpaceOnUse" x="675" y="387" width="12" height="12">
<ellipse cx="5.40833" cy="5.85553" rx="5.40833" ry="5.85553" transform="matrix(0.974549 0.224175 -0.229565 0.973293 677.275 386.148)" fill="#C4C4C4"/>
</mask>
<g mask="url(#mask2_859_457)">
<path d="M681.928 392.258L675.467 390.772L674.644 394.265C680.764 395.673 682.05 393.514 681.928 392.258Z" fill="#1F1F1F"/>
</g>
<defs>
<filter id="filter0_f_859_457" x="1.52588e-05" y="-0.000228882" width="888.264" height="906.223" filterUnits="userSpaceOnUse" color-interpolation-filters="sRGB">
<feFlood flood-opacity="0" result="BackgroundImageFix"/>
<feBlend mode="normal" in="SourceGraphic" in2="BackgroundImageFix" result="shape"/>
<feGaussianBlur stdDeviation="115.698" result="effect1_foregroundBlur_859_457"/>
</filter>
<filter id="filter1_ii_859_457" x="220.001" y="171.979" width="501.749" height="514.11" filterUnits="userSpaceOnUse" color-interpolation-filters="sRGB">
<feFlood flood-opacity="0" result="BackgroundImageFix"/>
<feBlend mode="normal" in="SourceGraphic" in2="BackgroundImageFix" result="shape"/>
<feColorMatrix in="SourceAlpha" type="matrix" values="0 0 0 0 0 0 0 0 0 0 0 0 0 0 0 0 0 0 127 0" result="hardAlpha"/>
<feMorphology radius="9" operator="dilate" in="SourceAlpha" result="effect1_innerShadow_859_457"/>
<feOffset dx="77.1317" dy="-53.7168"/>
<feGaussianBlur stdDeviation="34.5"/>
<feComposite in2="hardAlpha" operator="arithmetic" k2="-1" k3="1"/>
<feColorMatrix type="matrix" values="0 0 0 0 0 0 0 0 0 0 0 0 0 0 0 0 0 0 0.28 0"/>
<feBlend mode="normal" in2="shape" result="effect1_innerShadow_859_457"/>
<feColorMatrix in="SourceAlpha" type="matrix" values="0 0 0 0 0 0 0 0 0 0 0 0 0 0 0 0 0 0 127 0" result="hardAlpha"/>
<feOffset dx="4.13206" dy="-8.26412"/>
<feGaussianBlur stdDeviation="7.57544"/>
<feComposite in2="hardAlpha" operator="arithmetic" k2="-1" k3="1"/>
<feColorMatrix type="matrix" values="0 0 0 0 1 0 0 0 0 1 0 0 0 0 1 0 0 0 0.41 0"/>
<feBlend mode="normal" in2="effect1_innerShadow_859_457" result="effect2_innerShadow_859_457"/>
</filter>
<filter id="filter2_f_859_457" x="498.406" y="278.689" width="82.1717" height="73.5063" filterUnits="userSpaceOnUse" color-interpolation-filters="sRGB">
<feFlood flood-opacity="0" result="BackgroundImageFix"/>
<feBlend mode="normal" in="SourceGraphic" in2="BackgroundImageFix" result="shape"/>
<feGaussianBlur stdDeviation="4.13206" result="effect1_foregroundBlur_859_457"/>
</filter>
<filter id="filter3_di_859_457" x="506.21" y="283.493" width="69.7756" height="65.2421" filterUnits="userSpaceOnUse" color-interpolation-filters="sRGB">
<feFlood flood-opacity="0" result="BackgroundImageFix"/>
<feColorMatrix in="SourceAlpha" type="matrix" values="0 0 0 0 0 0 0 0 0 0 0 0 0 0 0 0 0 0 127 0" result="hardAlpha"/>
<feOffset dx="-1.37735" dy="1.37735"/>
<feGaussianBlur stdDeviation="0.688676"/>
<feComposite in2="hardAlpha" operator="out"/>
<feColorMatrix type="matrix" values="0 0 0 0 1 0 0 0 0 1 0 0 0 0 1 0 0 0 0.69 0"/>
<feBlend mode="normal" in2="BackgroundImageFix" result="effect1_dropShadow_859_457"/>
<feBlend mode="normal" in="SourceGraphic" in2="effect1_dropShadow_859_457" result="shape"/>
<feColorMatrix in="SourceAlpha" type="matrix" values="0 0 0 0 0 0 0 0 0 0 0 0 0 0 0 0 0 0 127 0" result="hardAlpha"/>
<feOffset dx="-4.13206" dy="8.26412"/>
<feGaussianBlur stdDeviation="12.3962"/>
<feComposite in2="hardAlpha" operator="arithmetic" k2="-1" k3="1"/>
<feColorMatrix type="matrix" values="0 0 0 0 0 0 0 0 0 0 0 0 0 0 0 0 0 0 0.15 0"/>
<feBlend mode="normal" in2="shape" result="effect2_innerShadow_859_457"/>
</filter>
<filter id="filter4_f_859_457" x="517.882" y="348.988" width="56.6247" height="51.3319" filterUnits="userSpaceOnUse" color-interpolation-filters="sRGB">
<feFlood flood-opacity="0" result="BackgroundImageFix"/>
<feBlend mode="normal" in="SourceGraphic" in2="BackgroundImageFix" result="shape"/>
<feGaussianBlur stdDeviation="4.13206" result="effect1_foregroundBlur_859_457"/>
</filter>
<filter id="filter5_di_859_457" x="524.257" y="355.139" width="44.2285" height="43.0678" filterUnits="userSpaceOnUse" color-interpolation-filters="sRGB">
<feFlood flood-opacity="0" result="BackgroundImageFix"/>
<feColorMatrix in="SourceAlpha" type="matrix" values="0 0 0 0 0 0 0 0 0 0 0 0 0 0 0 0 0 0 127 0" result="hardAlpha"/>
<feOffset dx="-1.37735" dy="1.37735"/>
<feGaussianBlur stdDeviation="0.688676"/>
<feComposite in2="hardAlpha" operator="out"/>
<feColorMatrix type="matrix" values="0 0 0 0 1 0 0 0 0 1 0 0 0 0 1 0 0 0 0.69 0"/>
<feBlend mode="normal" in2="BackgroundImageFix" result="effect1_dropShadow_859_457"/>
<feBlend mode="normal" in="SourceGraphic" in2="effect1_dropShadow_859_457" result="shape"/>
<feColorMatrix in="SourceAlpha" type="matrix" values="0 0 0 0 0 0 0 0 0 0 0 0 0 0 0 0 0 0 127 0" result="hardAlpha"/>
<feOffset dx="-4.13206" dy="8.26412"/>
<feGaussianBlur stdDeviation="12.3962"/>
<feComposite in2="hardAlpha" operator="arithmetic" k2="-1" k3="1"/>
<feColorMatrix type="matrix" values="0 0 0 0 0 0 0 0 0 0 0 0 0 0 0 0 0 0 0.15 0"/>
<feBlend mode="normal" in2="shape" result="effect2_innerShadow_859_457"/>
</filter>
<filter id="filter6_f_859_457" x="483.84" y="326.851" width="36.4739" height="33.0649" filterUnits="userSpaceOnUse" color-interpolation-filters="sRGB">
<feFlood flood-opacity="0" result="BackgroundImageFix"/>
<feBlend mode="normal" in="SourceGraphic" in2="BackgroundImageFix" result="shape"/>
<feGaussianBlur stdDeviation="2.66161" result="effect1_foregroundBlur_859_457"/>
</filter>
<filter id="filter7_di_859_457" x="487.946" y="330.812" width="28.4891" height="27.7417" filterUnits="userSpaceOnUse" color-interpolation-filters="sRGB">
<feFlood flood-opacity="0" result="BackgroundImageFix"/>
<feColorMatrix in="SourceAlpha" type="matrix" values="0 0 0 0 0 0 0 0 0 0 0 0 0 0 0 0 0 0 127 0" result="hardAlpha"/>
<feOffset dx="-0.887202" dy="0.887202"/>
<feGaussianBlur stdDeviation="0.443601"/>
<feComposite in2="hardAlpha" operator="out"/>
<feColorMatrix type="matrix" values="0 0 0 0 1 0 0 0 0 1 0 0 0 0 1 0 0 0 0.69 0"/>
<feBlend mode="normal" in2="BackgroundImageFix" result="effect1_dropShadow_859_457"/>
<feBlend mode="normal" in="SourceGraphic" in2="effect1_dropShadow_859_457" result="shape"/>
<feColorMatrix in="SourceAlpha" type="matrix" values="0 0 0 0 0 0 0 0 0 0 0 0 0 0 0 0 0 0 127 0" result="hardAlpha"/>
<feOffset dx="-2.66161" dy="5.32321"/>
<feGaussianBlur stdDeviation="7.98482"/>
<feComposite in2="hardAlpha" operator="arithmetic" k2="-1" k3="1"/>
<feColorMatrix type="matrix" values="0 0 0 0 0 0 0 0 0 0 0 0 0 0 0 0 0 0 0.15 0"/>
<feBlend mode="normal" in2="shape" result="effect2_innerShadow_859_457"/>
</filter>
<filter id="filter8_df_859_457" x="220.094" y="170.163" width="83.8054" height="83.1897" filterUnits="userSpaceOnUse" color-interpolation-filters="sRGB">
<feFlood flood-opacity="0" result="BackgroundImageFix"/>
<feColorMatrix in="SourceAlpha" type="matrix" values="0 0 0 0 0 0 0 0 0 0 0 0 0 0 0 0 0 0 127 0" result="hardAlpha"/>
<feOffset dy="4.58024"/>
<feGaussianBlur stdDeviation="8.58795"/>
<feComposite in2="hardAlpha" operator="out"/>
<feColorMatrix type="matrix" values="0 0 0 0 1 0 0 0 0 1 0 0 0 0 1 0 0 0 1 0"/>
<feBlend mode="normal" in2="BackgroundImageFix" result="effect1_dropShadow_859_457"/>
<feBlend mode="normal" in="SourceGraphic" in2="effect1_dropShadow_859_457" result="shape"/>
<feGaussianBlur stdDeviation="3.43518" result="effect2_foregroundBlur_859_457"/>
</filter>
<filter id="filter9_df_859_457" x="277.475" y="140.913" width="45.126" height="44.7945" filterUnits="userSpaceOnUse" color-interpolation-filters="sRGB">
<feFlood flood-opacity="0" result="BackgroundImageFix"/>
<feColorMatrix in="SourceAlpha" type="matrix" values="0 0 0 0 0 0 0 0 0 0 0 0 0 0 0 0 0 0 127 0" result="hardAlpha"/>
<feOffset dy="2.46628"/>
<feGaussianBlur stdDeviation="4.62428"/>
<feComposite in2="hardAlpha" operator="out"/>
<feColorMatrix type="matrix" values="0 0 0 0 1 0 0 0 0 1 0 0 0 0 1 0 0 0 1 0"/>
<feBlend mode="normal" in2="BackgroundImageFix" result="effect1_dropShadow_859_457"/>
<feBlend mode="normal" in="SourceGraphic" in2="effect1_dropShadow_859_457" result="shape"/>
<feGaussianBlur stdDeviation="1.84971" result="effect2_foregroundBlur_859_457"/>
</filter>
<filter id="filter10_df_859_457" x="226.754" y="140.913" width="45.126" height="44.7945" filterUnits="userSpaceOnUse" color-interpolation-filters="sRGB">
<feFlood flood-opacity="0" result="BackgroundImageFix"/>
<feColorMatrix in="SourceAlpha" type="matrix" values="0 0 0 0 0 0 0 0 0 0 0 0 0 0 0 0 0 0 127 0" result="hardAlpha"/>
<feOffset dy="2.46628"/>
<feGaussianBlur stdDeviation="4.62428"/>
<feComposite in2="hardAlpha" operator="out"/>
<feColorMatrix type="matrix" values="0 0 0 0 1 0 0 0 0 1 0 0 0 0 1 0 0 0 1 0"/>
<feBlend mode="normal" in2="BackgroundImageFix" result="effect1_dropShadow_859_457"/>
<feBlend mode="normal" in="SourceGraphic" in2="effect1_dropShadow_859_457" result="shape"/>
<feGaussianBlur stdDeviation="1.84971" result="effect2_foregroundBlur_859_457"/>
</filter>
<linearGradient id="paint0_linear_859_457" x1="593.428" y1="399.273" x2="719.796" y2="424.114" gradientUnits="userSpaceOnUse">
<stop stop-color="#B60202"/>
<stop offset="1" stop-color="#4B0202"/>
</linearGradient>
<linearGradient id="paint1_linear_859_457" x1="-1.30064" y1="7.63119" x2="14.4598" y2="4.24049" gradientUnits="userSpaceOnUse">
<stop stop-color="white"/>
<stop offset="1" stop-color="white" stop-opacity="0"/>
</linearGradient>
</defs>
</svg>
